<?xml version="1.0" encoding="utf-8" ?><svg xmlns="http://www.w3.org/2000/svg" xmlns:xlink="http://www.w3.org/1999/xlink" width="16" height="16"><path fill="#6366F1" transform="matrix(1 0 0 1 3.5 3.5)" d="M5.25 3.75L5.25 0Q5.259 -0.3144 5.0303 -0.5303Q4.8144 -0.759 4.5 -0.75Q4.1856 -0.759 3.9697 -0.5303Q3.741 -0.3144 3.75 0L3.75 3.75L0 3.75Q-0.3144 3.741 -0.5303 3.9697Q-0.759 4.1856 -0.75 4.5Q-0.759 4.8144 -0.5303 5.0303Q-0.3144 5.259 0 5.25L3.75 5.25L3.75 9Q3.741 9.3144 3.9697 9.5303Q4.1856 9.759 4.5 9.75Q4.8144 9.759 5.0303 9.5303Q5.259 9.3144 5.25 9L5.25 5.25L9 5.25Q9.3144 5.259 9.5303 5.0303Q9.759 4.8144 9.75 4.5Q9.759 4.1856 9.5303 3.9697Q9.3144 3.741 9 3.75L5.25 3.75Z" fill-rule="evenodd"/></svg>