<?xml version="1.0" encoding="utf-8" ?><svg xmlns="http://www.w3.org/2000/svg" xmlns:xlink="http://www.w3.org/1999/xlink" width="60" height="28"><path fill="#6366F1" transform="matrix(1 0 0 1 6.667 8.04568)" d="M14.0903 0.1971Q13.2932 -0.6 12.166 -0.6Q11.0442 -0.6 10.2494 0.1894L0.2576 9.5157Q0.185 9.5832 0.1383 9.6706Q0.0913 9.7578 0.0752 9.8556L-0.5918 13.8556Q-0.6403 14.1025 -0.4883 14.303Q-0.348 14.5119 -0.0987 14.5461Q-0.0497 14.5543 0 14.5543Q0.0497 14.5543 0.0987 14.5461L4.0987 13.8792Q4.1912 13.8639 4.2746 13.8208Q4.3581 13.778 4.4243 13.7116L14.0903 4.0456Q14.8873 3.2485 14.8873 2.1213Q14.8873 0.9941 14.0903 0.1971ZM11.0903 1.0456Q11.5358 0.6 12.166 0.6Q12.7962 0.6 13.2417 1.0456Q13.6873 1.4912 13.6873 2.1213Q13.6873 2.7515 13.2417 3.1971L3.7117 12.7271L0.73 13.2243L1.2253 10.2539L11.0754 1.0599Q11.0792 1.0564 11.0829 1.0528Q11.0866 1.0492 11.0903 1.0456Z" fill-rule="evenodd"/><rect fill="#F8F3F0" transform="matrix(1 0 0 1 32 0)" width="28" height="28" rx="6" ry="6"/><path fill="#94A3B8" transform="matrix(1 0 0 1 39 9)" d="M12.4243 2.0757Q9.7485 -0.6 7 -0.6Q4.2515 -0.6 1.5757 2.0757Q0.2735 3.378 -0.5145 4.6913Q-0.6016 4.8334 -0.6 5Q-0.6016 5.1666 -0.5145 5.3087Q0.2735 6.622 1.5757 7.9243Q4.2515 10.6 7 10.6Q9.7485 10.6 12.4243 7.9243Q13.7265 6.622 14.5145 5.3087Q14.6016 5.1666 14.6 5Q14.6016 4.8334 14.5145 4.6913Q13.7265 3.378 12.4243 2.0757ZM2.4243 2.9243Q4.7485 0.6 7 0.6Q9.2515 0.6 11.5757 2.9243Q12.6178 3.9663 13.2922 5Q12.6178 6.0337 11.5757 7.0757Q9.2515 9.4 7 9.4Q4.7485 9.4 2.4243 7.0757Q1.3822 6.0337 0.7078 5Q1.3822 3.9663 2.4243 2.9243Z" fill-rule="evenodd"/><path fill="#94A3B8" transform="matrix(1 0 0 1 43.5 11.5)" d="M5 2.5Q5 1.4645 4.2678 0.7322Q3.5355 0 2.5 0Q1.4645 0 0.7322 0.7322Q0 1.4645 0 2.5Q0 3.5355 0.7322 4.2678Q1.4645 5 2.5 5Q3.5355 5 4.2678 4.2678Q5 3.5355 5 2.5ZM1.5808 1.5808Q1.9615 1.2 2.5 1.2Q3.0385 1.2 3.4192 1.5808Q3.8 1.9615 3.8 2.5Q3.8 3.0385 3.4192 3.4192Q3.0385 3.8 2.5 3.8Q1.9615 3.8 1.5808 3.4192Q1.2 3.0385 1.2 2.5Q1.2 1.9615 1.5808 1.5808Z" fill-rule="evenodd"/></svg>