<?xml version="1.0" encoding="utf-8" ?><svg xmlns="http://www.w3.org/2000/svg" xmlns:xlink="http://www.w3.org/1999/xlink" width="16" height="16.6"><path fill="#6366F1" transform="matrix(1 0 0 1 0.667 2.04568)" d="M14.0903 0.1971Q13.2932 -0.6 12.166 -0.6Q11.0442 -0.6 10.2494 0.1894L0.2576 9.5157Q0.185 9.5832 0.1383 9.6706Q0.0913 9.7578 0.0752 9.8556L-0.5918 13.8556Q-0.6403 14.1025 -0.4883 14.303Q-0.348 14.5119 -0.0987 14.5461Q-0.0497 14.5543 0 14.5543Q0.0497 14.5543 0.0987 14.5461L4.0987 13.8792Q4.1912 13.8639 4.2746 13.8208Q4.3581 13.778 4.4243 13.7116L14.0903 4.0456Q14.8873 3.2485 14.8873 2.1213Q14.8873 0.9941 14.0903 0.1971ZM11.0903 1.0456Q11.5358 0.6 12.166 0.6Q12.7962 0.6 13.2417 1.0456Q13.6873 1.4912 13.6873 2.1213Q13.6873 2.7515 13.2417 3.1971L3.7117 12.7271L0.73 13.2243L1.2253 10.2539L11.0754 1.0599Q11.0792 1.0564 11.0829 1.0528Q11.0866 1.0492 11.0903 1.0456Z" fill-rule="evenodd"/></svg>