<?xml version="1.0" encoding="utf-8" ?><svg xmlns="http://www.w3.org/2000/svg" xmlns:xlink="http://www.w3.org/1999/xlink" width="16" height="16"><path fill="#94A3B8" transform="matrix(1 0 0 1 1 3)" d="M12.4243 2.0757Q9.7485 -0.6 7 -0.6Q4.2515 -0.6 1.5757 2.0757Q0.2735 3.378 -0.5145 4.6913Q-0.6016 4.8334 -0.6 5Q-0.6016 5.1666 -0.5145 5.3087Q0.2735 6.622 1.5757 7.9243Q4.2515 10.6 7 10.6Q9.7485 10.6 12.4243 7.9243Q13.7265 6.622 14.5145 5.3087Q14.6016 5.1666 14.6 5Q14.6016 4.8334 14.5145 4.6913Q13.7265 3.378 12.4243 2.0757ZM2.4243 2.9243Q4.7485 0.6 7 0.6Q9.2515 0.6 11.5757 2.9243Q12.6178 3.9663 13.2922 5Q12.6178 6.0337 11.5757 7.0757Q9.2515 9.4 7 9.4Q4.7485 9.4 2.4243 7.0757Q1.3822 6.0337 0.7078 5Q1.3822 3.9663 2.4243 2.9243Z" fill-rule="evenodd"/><path fill="#94A3B8" transform="matrix(1 0 0 1 5.5 5.5)" d="M5 2.5Q5 1.4645 4.2678 0.7322Q3.5355 0 2.5 0Q1.4645 0 0.7322 0.7322Q0 1.4645 0 2.5Q0 3.5355 0.7322 4.2678Q1.4645 5 2.5 5Q3.5355 5 4.2678 4.2678Q5 3.5355 5 2.5ZM1.5808 1.5808Q1.9615 1.2 2.5 1.2Q3.0385 1.2 3.4192 1.5808Q3.8 1.9615 3.8 2.5Q3.8 3.0385 3.4192 3.4192Q3.0385 3.8 2.5 3.8Q1.9615 3.8 1.5808 3.4192Q1.2 3.0385 1.2 2.5Q1.2 1.9615 1.5808 1.5808Z" fill-rule="evenodd"/></svg>